<svg width="1920" height="1738" viewBox="0 0 1920 1738" fill="none" xmlns="http://www.w3.org/2000/svg">
<rect x="6.10352e-05" y="547" width="1920" height="1191" fill="white"/>
<path d="M1194.88 133.527C1469.56 374.141 1809.19 29.1895 1961.44 109.039C1961.44 290.032 1961.44 971.915 1961.44 971.915H1194.88C1194.88 971.915 1194.88 340.072 1194.88 133.527Z" fill="white"/>
<circle cx="1798.55" cy="153.187" r="86.2379" fill="white"/>
<circle cx="1920.4" cy="106.402" r="105.402" fill="white"/>
<circle cx="1659.5" cy="211.5" r="119.5" fill="white"/>
<circle cx="1160" cy="177" r="73" fill="white"/>
<circle cx="1366.29" cy="204.291" r="62.8152" fill="white"/>
<circle cx="1489.79" cy="236.231" r="71.3326" fill="white"/>
<mask id="path-9-inside-1_16_22" fill="white">
<path fill-rule="evenodd" clip-rule="evenodd" d="M1775.54 232.67C1769.13 203.386 1787.68 174.457 1816.97 168.055C1846.25 161.653 1875.18 180.203 1881.58 209.486C1881.82 210.565 1882.88 211.249 1883.96 211.013C1885.04 210.777 1885.73 209.711 1885.49 208.632C1878.62 177.19 1847.55 157.274 1816.11 164.147C1789.06 170.061 1770.54 193.88 1770.27 220.44C1761.27 205.87 1743.75 197.843 1726.07 201.709C1703.67 206.608 1689.47 228.742 1694.37 251.147C1694.61 252.226 1695.67 252.91 1696.75 252.674C1697.83 252.438 1698.51 251.372 1698.28 250.293C1693.85 230.046 1706.68 210.044 1726.92 205.617C1747.17 201.191 1767.17 214.016 1771.6 234.263C1771.84 235.342 1772.9 236.026 1773.98 235.79C1775.02 235.564 1775.69 234.574 1775.53 233.541C1775.6 233.263 1775.6 232.967 1775.54 232.67Z"/>
</mask>
<path fill-rule="evenodd" clip-rule="evenodd" d="M1775.54 232.67C1769.13 203.386 1787.68 174.457 1816.97 168.055C1846.25 161.653 1875.18 180.203 1881.58 209.486C1881.82 210.565 1882.88 211.249 1883.96 211.013C1885.04 210.777 1885.73 209.711 1885.49 208.632C1878.62 177.19 1847.55 157.274 1816.11 164.147C1789.06 170.061 1770.54 193.88 1770.27 220.44C1761.27 205.87 1743.75 197.843 1726.07 201.709C1703.67 206.608 1689.47 228.742 1694.37 251.147C1694.61 252.226 1695.67 252.91 1696.75 252.674C1697.83 252.438 1698.51 251.372 1698.28 250.293C1693.85 230.046 1706.68 210.044 1726.92 205.617C1747.17 201.191 1767.17 214.016 1771.6 234.263C1771.84 235.342 1772.9 236.026 1773.98 235.79C1775.02 235.564 1775.69 234.574 1775.53 233.541C1775.6 233.263 1775.6 232.967 1775.54 232.67Z" fill="white"/>
<path d="M1770.27 220.44L1766.87 222.543L1774.14 234.297L1774.27 220.481L1770.27 220.44ZM1775.53 233.541L1771.63 232.651L1771.46 233.388L1771.58 234.135L1775.53 233.541ZM1816.11 164.147C1784.67 171.021 1764.75 202.082 1771.63 233.524L1779.44 231.816C1773.51 204.69 1790.7 177.893 1817.82 171.963L1816.11 164.147ZM1885.49 208.632C1878.62 177.19 1847.55 157.274 1816.11 164.147L1817.82 171.963C1844.95 166.033 1871.74 183.215 1877.67 210.341L1885.49 208.632ZM1883.11 207.105C1884.19 206.869 1885.25 207.553 1885.49 208.632L1877.67 210.341C1878.38 213.578 1881.58 215.628 1884.82 214.921L1883.11 207.105ZM1881.58 209.486C1881.35 208.407 1882.03 207.341 1883.11 207.105L1884.82 214.921C1888.05 214.213 1890.1 211.015 1889.4 207.778L1881.58 209.486ZM1816.97 168.055C1846.25 161.653 1875.18 180.203 1881.58 209.486L1889.4 207.778C1882.05 174.178 1848.86 152.894 1815.26 160.24L1816.97 168.055ZM1774.27 220.481C1774.52 195.743 1791.78 173.562 1816.97 168.055L1815.26 160.24C1786.34 166.561 1766.56 192.016 1766.27 220.4L1774.27 220.481ZM1726.92 205.617C1742.9 202.125 1758.73 209.371 1766.87 222.543L1773.68 218.338C1763.81 202.368 1744.61 193.562 1725.22 197.802L1726.92 205.617ZM1698.28 250.293C1693.85 230.046 1706.68 210.044 1726.92 205.617L1725.22 197.802C1700.65 203.172 1685.09 227.438 1690.46 252.001L1698.28 250.293ZM1695.9 248.766C1696.98 248.53 1698.04 249.214 1698.28 250.293L1690.46 252.001C1691.17 255.239 1694.37 257.289 1697.61 256.581L1695.9 248.766ZM1694.37 251.147C1694.14 250.068 1694.82 249.002 1695.9 248.766L1697.61 256.581C1700.84 255.874 1702.89 252.676 1702.19 249.438L1694.37 251.147ZM1726.07 201.709C1703.67 206.608 1689.47 228.742 1694.37 251.147L1702.19 249.438C1698.23 231.349 1709.69 213.48 1727.78 209.525L1726.07 201.709ZM1775.51 233.409C1770.61 211.004 1748.48 196.811 1726.07 201.709L1727.78 209.525C1745.87 205.57 1763.74 217.029 1767.69 235.118L1775.51 233.409ZM1773.13 231.882C1774.21 231.646 1775.27 232.33 1775.51 233.409L1767.69 235.118C1768.4 238.355 1771.6 240.405 1774.84 239.698L1773.13 231.882ZM1771.58 234.135C1771.42 233.099 1772.09 232.109 1773.13 231.882L1774.84 239.698C1777.94 239.019 1779.95 236.049 1779.49 232.947L1771.58 234.135ZM1771.63 233.524C1771.56 233.234 1771.57 232.934 1771.63 232.651L1779.43 234.432C1779.62 233.592 1779.64 232.7 1779.44 231.816L1771.63 233.524Z" fill="#D9D5FB" mask="url(#path-9-inside-1_16_22)"/>
<mask id="path-11-inside-2_16_22" fill="white">
<path fill-rule="evenodd" clip-rule="evenodd" d="M1307.19 228.158C1298.87 207.673 1275.51 197.812 1255.03 206.133C1234.54 214.453 1224.68 237.805 1233 258.29C1233.42 259.313 1232.93 260.48 1231.9 260.896C1230.88 261.311 1229.71 260.819 1229.3 259.795C1220.15 237.264 1230.99 211.579 1253.52 202.427C1272.39 194.765 1293.46 201.119 1305.19 216.61C1305.25 204.212 1312.66 192.487 1324.86 187.532C1340.99 180.98 1359.38 188.745 1365.93 204.875C1366.35 205.899 1365.85 207.065 1364.83 207.481C1363.81 207.897 1362.64 207.404 1362.22 206.381C1356.5 192.297 1340.45 185.517 1326.37 191.238C1312.28 196.958 1305.5 213.013 1311.22 227.097C1311.64 228.12 1311.15 229.287 1310.12 229.702C1309.17 230.089 1308.09 229.69 1307.61 228.809C1307.44 228.628 1307.29 228.409 1307.19 228.158Z"/>
</mask>
<path fill-rule="evenodd" clip-rule="evenodd" d="M1307.19 228.158C1298.87 207.673 1275.51 197.812 1255.03 206.133C1234.54 214.453 1224.68 237.805 1233 258.29C1233.42 259.313 1232.93 260.48 1231.9 260.896C1230.88 261.311 1229.71 260.819 1229.3 259.795C1220.15 237.264 1230.99 211.579 1253.52 202.427C1272.39 194.765 1293.46 201.119 1305.19 216.61C1305.25 204.212 1312.66 192.487 1324.86 187.532C1340.99 180.98 1359.38 188.745 1365.93 204.875C1366.35 205.899 1365.85 207.065 1364.83 207.481C1363.81 207.897 1362.64 207.404 1362.22 206.381C1356.5 192.297 1340.45 185.517 1326.37 191.238C1312.28 196.958 1305.5 213.013 1311.22 227.097C1311.64 228.12 1311.15 229.287 1310.12 229.702C1309.17 230.089 1308.09 229.69 1307.61 228.809C1307.44 228.628 1307.29 228.409 1307.19 228.158Z" fill="white"/>
<path d="M1305.19 216.61L1309.19 216.628L1309.14 228.447L1302 219.025L1305.19 216.61ZM1307.61 228.809L1310.46 226.002L1310.86 226.401L1311.13 226.894L1307.61 228.809ZM1253.52 202.427C1276.06 193.275 1301.74 204.121 1310.89 226.653L1303.48 229.664C1295.99 211.225 1274.97 202.349 1256.54 209.839L1253.52 202.427ZM1229.3 259.795C1220.15 237.264 1230.99 211.579 1253.52 202.427L1256.54 209.839C1238.1 217.328 1229.22 238.346 1236.71 256.785L1229.3 259.795ZM1230.4 257.19C1229.38 257.605 1228.88 258.772 1229.3 259.795L1236.71 256.785C1237.96 259.855 1236.48 263.355 1233.41 264.602L1230.4 257.19ZM1233 258.29C1232.59 257.267 1231.42 256.774 1230.4 257.19L1233.41 264.602C1230.34 265.849 1226.84 264.371 1225.59 261.301L1233 258.29ZM1255.03 206.133C1234.54 214.453 1224.68 237.805 1233 258.29L1225.59 261.301C1215.61 236.722 1227.44 208.704 1252.02 198.721L1255.03 206.133ZM1302 219.025C1291.33 204.94 1272.17 199.169 1255.03 206.133L1252.02 198.721C1272.6 190.361 1295.58 197.298 1308.38 214.195L1302 219.025ZM1326.37 191.238C1315.72 195.562 1309.24 205.794 1309.19 216.628L1301.19 216.592C1301.25 202.629 1309.6 189.412 1323.35 183.826L1326.37 191.238ZM1362.22 206.381C1356.5 192.297 1340.45 185.517 1326.37 191.238L1323.35 183.826C1341.53 176.443 1362.25 185.193 1369.64 203.37L1362.22 206.381ZM1363.32 203.775C1362.3 204.191 1361.81 205.357 1362.22 206.381L1369.64 203.37C1370.88 206.44 1369.41 209.94 1366.33 211.187L1363.32 203.775ZM1365.93 204.875C1365.51 203.852 1364.35 203.359 1363.32 203.775L1366.33 211.187C1363.26 212.434 1359.77 210.956 1358.52 207.886L1365.93 204.875ZM1324.86 187.532C1340.99 180.98 1359.38 188.745 1365.93 204.875L1358.52 207.886C1353.63 195.849 1339.91 190.055 1327.87 194.944L1324.86 187.532ZM1307.52 228.602C1300.96 212.471 1308.73 194.084 1324.86 187.532L1327.87 194.944C1315.83 199.833 1310.04 213.554 1314.93 225.591L1307.52 228.602ZM1308.62 225.996C1307.59 226.412 1307.1 227.579 1307.52 228.602L1314.93 225.591C1316.18 228.661 1314.7 232.161 1311.63 233.408L1308.62 225.996ZM1311.13 226.894C1310.64 226.009 1309.57 225.609 1308.62 225.996L1311.63 233.408C1308.77 234.569 1305.55 233.37 1304.1 230.724L1311.13 226.894ZM1310.89 226.653C1310.79 226.409 1310.65 226.187 1310.46 226.002L1304.77 231.616C1304.22 231.068 1303.78 230.409 1303.48 229.664L1310.89 226.653Z" fill="#D9D5FB" mask="url(#path-11-inside-2_16_22)"/>
<mask id="path-13-inside-3_16_22" fill="white">
<path fill-rule="evenodd" clip-rule="evenodd" d="M1584.97 736.511C1590.63 719.979 1608.62 711.166 1625.15 716.827C1641.69 722.488 1650.5 740.479 1644.84 757.012C1644.48 758.057 1645.04 759.194 1646.08 759.552C1647.13 759.91 1648.27 759.353 1648.62 758.308C1655 739.685 1645.07 719.419 1626.45 713.042C1611.23 707.831 1594.91 713.51 1585.98 725.925C1584.97 716.306 1578.53 707.67 1568.78 704.331C1555.39 699.746 1540.82 706.884 1536.23 720.276C1535.87 721.321 1536.43 722.458 1537.48 722.816C1538.52 723.173 1539.66 722.616 1540.02 721.571C1543.89 710.27 1556.18 704.246 1567.48 708.115C1578.79 711.985 1584.81 724.284 1580.94 735.585C1580.58 736.63 1581.14 737.767 1582.19 738.125C1583.14 738.452 1584.17 738.016 1584.61 737.143C1584.77 736.961 1584.89 736.749 1584.97 736.511Z"/>
</mask>
<path fill-rule="evenodd" clip-rule="evenodd" d="M1584.97 736.511C1590.63 719.979 1608.62 711.166 1625.15 716.827C1641.69 722.488 1650.5 740.479 1644.84 757.012C1644.48 758.057 1645.04 759.194 1646.08 759.552C1647.13 759.91 1648.27 759.353 1648.62 758.308C1655 739.685 1645.07 719.419 1626.45 713.042C1611.23 707.831 1594.91 713.51 1585.98 725.925C1584.97 716.306 1578.53 707.67 1568.78 704.331C1555.39 699.746 1540.82 706.884 1536.23 720.276C1535.87 721.321 1536.43 722.458 1537.48 722.816C1538.52 723.173 1539.66 722.616 1540.02 721.571C1543.89 710.27 1556.18 704.246 1567.48 708.115C1578.79 711.985 1584.81 724.284 1580.94 735.585C1580.58 736.63 1581.14 737.767 1582.19 738.125C1583.14 738.452 1584.17 738.016 1584.61 737.143C1584.77 736.961 1584.89 736.749 1584.97 736.511Z" fill="white"/>
<path d="M1585.98 725.925L1582 726.342L1583.09 736.781L1589.22 728.262L1585.98 725.925ZM1584.61 737.143L1581.54 734.584L1581.25 734.929L1581.05 735.328L1584.61 737.143ZM1626.45 713.042C1607.83 706.666 1587.56 716.593 1581.18 735.216L1588.75 737.807C1593.7 723.365 1609.42 715.665 1623.86 720.611L1626.45 713.042ZM1648.62 758.308C1655 739.685 1645.07 719.419 1626.45 713.042L1623.86 720.611C1638.3 725.556 1646 741.274 1641.05 755.716L1648.62 758.308ZM1647.38 755.768C1648.42 756.126 1648.98 757.263 1648.62 758.308L1641.05 755.716C1639.98 758.851 1641.65 762.263 1644.79 763.336L1647.38 755.768ZM1644.84 757.012C1645.2 755.967 1646.33 755.41 1647.38 755.768L1644.79 763.336C1647.92 764.41 1651.33 762.739 1652.41 759.604L1644.84 757.012ZM1625.15 716.827C1641.69 722.488 1650.5 740.479 1644.84 757.012L1652.41 759.604C1659.5 738.891 1648.46 716.35 1627.75 709.258L1625.15 716.827ZM1589.22 728.262C1597.16 717.237 1611.65 712.202 1625.15 716.827L1627.75 709.258C1610.81 703.46 1592.67 709.782 1582.73 723.588L1589.22 728.262ZM1567.48 708.115C1575.71 710.931 1581.15 718.214 1582 726.342L1589.95 725.509C1588.79 714.398 1581.36 704.409 1570.08 700.547L1567.48 708.115ZM1540.02 721.571C1543.89 710.27 1556.18 704.246 1567.48 708.115L1570.08 700.547C1554.6 695.246 1537.75 703.498 1532.45 718.98L1540.02 721.571ZM1538.77 719.031C1539.82 719.389 1540.37 720.526 1540.02 721.571L1532.45 718.98C1531.37 722.115 1533.04 725.526 1536.18 726.6L1538.77 719.031ZM1536.23 720.276C1536.59 719.231 1537.73 718.673 1538.77 719.031L1536.18 726.6C1539.31 727.673 1542.73 726.002 1543.8 722.867L1536.23 720.276ZM1568.78 704.331C1555.39 699.746 1540.82 706.884 1536.23 720.276L1543.8 722.867C1546.95 713.656 1556.98 708.746 1566.19 711.9L1568.78 704.331ZM1584.73 736.881C1589.31 723.489 1582.17 708.916 1568.78 704.331L1566.19 711.9C1575.4 715.054 1580.31 725.078 1577.16 734.289L1584.73 736.881ZM1583.48 734.341C1584.53 734.699 1585.08 735.836 1584.73 736.881L1577.16 734.289C1576.08 737.424 1577.75 740.836 1580.89 741.909L1583.48 734.341ZM1581.05 735.328C1581.5 734.451 1582.52 734.013 1583.48 734.341L1580.89 741.909C1583.75 742.89 1586.84 741.581 1588.18 738.958L1581.05 735.328ZM1581.18 735.216C1581.26 734.985 1581.38 734.771 1581.54 734.584L1587.69 739.701C1588.15 739.151 1588.51 738.512 1588.75 737.807L1581.18 735.216Z" fill="#D9D5FB" mask="url(#path-13-inside-3_16_22)"/>
<path d="M663.365 143.292C424.134 352.851 128.341 52.421 -4.25646 121.965C-4.25646 279.598 -4.25646 873.471 -4.25646 873.471H663.365C663.365 873.471 663.365 323.178 663.365 143.292Z" fill="white"/>
<circle cx="75.1074" cy="75.1074" r="75.1074" transform="matrix(-1 0 0 1 212.721 85.3072)" fill="white"/>
<circle cx="91.7979" cy="91.7979" r="91.7979" transform="matrix(-1 0 0 1 90.5958 0)" fill="white"/>
<circle cx="92.7252" cy="92.7252" r="92.7252" transform="matrix(-1 0 0 1 362.935 129.815)" fill="white"/>
<circle cx="92.7252" cy="92.7252" r="92.7252" transform="matrix(-1 0 0 1 719 57.4896)" fill="white"/>
<circle cx="54.7079" cy="54.7079" r="54.7079" transform="matrix(-1 0 0 1 568.785 150.215)" fill="white"/>
<circle cx="62.1259" cy="62.1259" r="62.1259" transform="matrix(-1 0 0 1 468.642 170.614)" fill="white"/>
<mask id="path-22-inside-4_16_22" fill="white">
<path fill-rule="evenodd" clip-rule="evenodd" d="M114.989 190.571C107.796 172.862 87.6092 164.337 69.9002 171.53C52.1912 178.723 43.6663 198.91 50.8594 216.619C51.2751 217.643 50.7825 218.809 49.7591 219.225C48.7357 219.641 47.5691 219.148 47.1535 218.125C39.129 198.369 48.6391 175.849 68.3949 167.824C84.6943 161.204 102.876 166.519 113.245 179.677C113.577 169.052 120.041 159.109 130.523 154.852C144.704 149.092 160.869 155.918 166.629 170.099C167.044 171.122 166.552 172.289 165.528 172.704C164.505 173.12 163.338 172.628 162.923 171.604C157.994 159.47 144.162 153.629 132.028 158.558C119.895 163.486 114.054 177.318 118.982 189.452C119.398 190.475 118.905 191.642 117.882 192.058C116.941 192.44 115.88 192.055 115.392 191.196C115.224 191.02 115.086 190.81 114.989 190.571Z"/>
</mask>
<path fill-rule="evenodd" clip-rule="evenodd" d="M114.989 190.571C107.796 172.862 87.6092 164.337 69.9002 171.53C52.1912 178.723 43.6663 198.91 50.8594 216.619C51.2751 217.643 50.7825 218.809 49.7591 219.225C48.7357 219.641 47.5691 219.148 47.1535 218.125C39.129 198.369 48.6391 175.849 68.3949 167.824C84.6943 161.204 102.876 166.519 113.245 179.677C113.577 169.052 120.041 159.109 130.523 154.852C144.704 149.092 160.869 155.918 166.629 170.099C167.044 171.122 166.552 172.289 165.528 172.704C164.505 173.12 163.338 172.628 162.923 171.604C157.994 159.47 144.162 153.629 132.028 158.558C119.895 163.486 114.054 177.318 118.982 189.452C119.398 190.475 118.905 191.642 117.882 192.058C116.941 192.44 115.88 192.055 115.392 191.196C115.224 191.02 115.086 190.81 114.989 190.571Z" fill="white"/>
<path d="M113.245 179.677L117.243 179.802L116.9 190.776L110.103 182.152L113.245 179.677ZM115.392 191.196L118.291 188.441L118.627 188.794L118.869 189.218L115.392 191.196ZM68.3949 167.824C88.1506 159.8 110.671 169.31 118.695 189.066L111.283 192.076C104.922 176.414 87.0677 168.874 71.4055 175.236L68.3949 167.824ZM47.1535 218.125C39.129 198.369 48.6391 175.849 68.3949 167.824L71.4055 175.236C55.7432 181.598 48.2036 199.452 54.5654 215.114L47.1535 218.125ZM48.2538 215.519C47.2304 215.935 46.7378 217.101 47.1535 218.125L54.5654 215.114C55.8124 218.184 54.3345 221.684 51.2644 222.931L48.2538 215.519ZM50.8594 216.619C50.4438 215.596 49.2772 215.103 48.2538 215.519L51.2644 222.931C48.1943 224.178 44.6945 222.7 43.4475 219.63L50.8594 216.619ZM69.9002 171.53C52.1912 178.723 43.6663 198.91 50.8594 216.619L43.4475 219.63C34.5917 197.828 45.0871 172.974 66.8896 164.118L69.9002 171.53ZM110.103 182.152C100.807 170.356 84.5055 165.598 69.9002 171.53L66.8896 164.118C84.8831 156.81 104.944 162.682 116.387 177.201L110.103 182.152ZM132.028 158.558C123.065 162.199 117.528 170.702 117.243 179.802L109.247 179.552C109.627 167.403 117.017 156.02 129.018 151.146L132.028 158.558ZM162.923 171.604C157.994 159.47 144.162 153.629 132.028 158.558L129.018 151.146C145.245 144.555 163.743 152.366 170.335 168.594L162.923 171.604ZM164.023 168.999C163 169.414 162.507 170.581 162.923 171.604L170.335 168.594C171.582 171.664 170.104 175.163 167.034 176.41L164.023 168.999ZM166.629 170.099C166.213 169.075 165.046 168.583 164.023 168.999L167.034 176.41C163.964 177.657 160.464 176.18 159.217 173.109L166.629 170.099ZM130.523 154.852C144.704 149.092 160.869 155.918 166.629 170.099L159.217 173.109C155.12 163.022 143.621 158.166 133.534 162.264L130.523 154.852ZM115.276 190.957C109.516 176.777 116.343 160.612 130.523 154.852L133.534 162.264C123.447 166.361 118.591 177.86 122.688 187.947L115.276 190.957ZM116.376 188.352C115.353 188.767 114.86 189.934 115.276 190.957L122.688 187.947C123.935 191.017 122.457 194.517 119.387 195.764L116.376 188.352ZM118.869 189.218C118.378 188.356 117.32 187.969 116.376 188.352L119.387 195.764C116.563 196.911 113.383 195.754 111.915 193.174L118.869 189.218ZM118.695 189.066C118.601 188.834 118.463 188.621 118.291 188.441L112.492 193.951C111.986 193.418 111.572 192.786 111.283 192.076L118.695 189.066Z" fill="#D9D5FB" mask="url(#path-22-inside-4_16_22)"/>
<mask id="path-24-inside-5_16_22" fill="white">
<path fill-rule="evenodd" clip-rule="evenodd" d="M323.379 668.535C318.495 654.27 302.972 646.667 288.708 651.551C274.444 656.435 266.841 671.958 271.725 686.222C272.083 687.267 271.526 688.404 270.481 688.762C269.436 689.12 268.298 688.563 267.94 687.518C262.341 671.164 271.058 653.367 287.413 647.767C300.561 643.264 314.642 648.017 322.567 658.552C323.67 650.342 329.268 643.046 337.638 640.18C349.436 636.14 362.275 642.429 366.315 654.227C366.673 655.272 366.116 656.409 365.071 656.767C364.026 657.125 362.888 656.568 362.53 655.523C359.206 645.815 348.642 640.64 338.934 643.964C329.226 647.288 324.051 657.853 327.376 667.56C327.733 668.605 327.176 669.743 326.131 670.1C325.187 670.424 324.167 670 323.715 669.144C323.572 668.967 323.457 668.762 323.379 668.535Z"/>
</mask>
<path fill-rule="evenodd" clip-rule="evenodd" d="M323.379 668.535C318.495 654.27 302.972 646.667 288.708 651.551C274.444 656.435 266.841 671.958 271.725 686.222C272.083 687.267 271.526 688.404 270.481 688.762C269.436 689.12 268.298 688.563 267.94 687.518C262.341 671.164 271.058 653.367 287.413 647.767C300.561 643.264 314.642 648.017 322.567 658.552C323.67 650.342 329.268 643.046 337.638 640.18C349.436 636.14 362.275 642.429 366.315 654.227C366.673 655.272 366.116 656.409 365.071 656.767C364.026 657.125 362.888 656.568 362.53 655.523C359.206 645.815 348.642 640.64 338.934 643.964C329.226 647.288 324.051 657.853 327.376 667.56C327.733 668.605 327.176 669.743 326.131 670.1C325.187 670.424 324.167 670 323.715 669.144C323.572 668.967 323.457 668.762 323.379 668.535Z" fill="white"/>
<path d="M322.567 658.552L326.532 659.085L325.233 668.75L319.371 660.957L322.567 658.552ZM323.715 669.144L326.827 666.63L327.071 666.933L327.253 667.277L323.715 669.144ZM287.413 647.767C303.767 642.167 321.564 650.885 327.164 667.239L319.595 669.83C315.426 657.656 302.178 651.167 290.004 655.335L287.413 647.767ZM267.94 687.518C262.341 671.164 271.058 653.367 287.413 647.767L290.004 655.335C277.83 659.504 271.34 672.752 275.509 684.926L267.94 687.518ZM269.185 684.978C268.14 685.336 267.583 686.473 267.94 687.518L275.509 684.926C276.583 688.061 274.911 691.473 271.776 692.546L269.185 684.978ZM271.725 686.222C271.367 685.177 270.23 684.62 269.185 684.978L271.776 692.546C268.641 693.62 265.23 691.949 264.156 688.814L271.725 686.222ZM288.708 651.551C274.444 656.435 266.841 671.958 271.725 686.222L264.156 688.814C257.841 670.37 267.673 650.298 286.117 643.982L288.708 651.551ZM319.371 660.957C312.456 651.765 300.171 647.626 288.708 651.551L286.117 643.982C300.951 638.903 316.828 644.27 325.764 656.147L319.371 660.957ZM338.934 643.964C332.052 646.321 327.441 652.318 326.532 659.085L318.603 658.02C319.9 648.365 326.484 639.771 336.343 636.395L338.934 643.964ZM362.53 655.523C359.206 645.815 348.642 640.64 338.934 643.964L336.343 636.395C350.23 631.64 365.344 639.043 370.099 652.931L362.53 655.523ZM363.775 652.983C362.73 653.34 362.173 654.478 362.53 655.523L370.099 652.931C371.173 656.066 369.501 659.478 366.366 660.551L363.775 652.983ZM366.315 654.227C365.957 653.182 364.82 652.625 363.775 652.983L366.366 660.551C363.231 661.625 359.82 659.953 358.746 656.818L366.315 654.227ZM337.638 640.18C349.436 636.14 362.275 642.429 366.315 654.227L358.746 656.818C356.138 649.201 347.848 645.14 340.23 647.748L337.638 640.18ZM323.591 668.856C319.551 657.058 325.841 644.219 337.638 640.18L340.23 647.748C332.612 650.357 328.551 658.647 331.16 666.264L323.591 668.856ZM324.835 666.316C323.79 666.674 323.233 667.811 323.591 668.856L331.16 666.264C332.233 669.4 330.562 672.811 327.427 673.885L324.835 666.316ZM327.253 667.277C326.8 666.418 325.783 665.991 324.835 666.316L327.427 673.885C324.59 674.856 321.534 673.582 320.178 671.011L327.253 667.277ZM327.164 667.239C327.088 667.018 326.973 666.811 326.827 666.63L320.604 671.658C320.172 671.123 319.827 670.507 319.595 669.83L327.164 667.239Z" fill="#D9D5FB" mask="url(#path-24-inside-5_16_22)"/>
<path d="M649.88 214.527C924.564 455.141 1264.19 110.189 1416.44 190.039C1416.44 371.032 1416.44 1052.91 1416.44 1052.91H649.88C649.88 1052.91 649.88 421.072 649.88 214.527Z" fill="white"/>
<circle cx="1253.55" cy="234.187" r="86.2379" fill="white"/>
<circle cx="1402.6" cy="155.402" r="105.402" fill="white"/>
<circle cx="1101.3" cy="305.52" r="106.467" fill="white"/>
<circle cx="692.466" cy="222.476" r="106.467" fill="white"/>
<circle cx="821.291" cy="285.291" r="62.8152" fill="white"/>
<circle cx="944.792" cy="317.231" r="71.3326" fill="white"/>
<mask id="path-33-inside-6_16_22" fill="white">
<path fill-rule="evenodd" clip-rule="evenodd" d="M1308.5 323.576C1316.82 303.091 1340.17 293.23 1360.65 301.55C1381.14 309.871 1391 333.223 1382.68 353.708C1382.26 354.731 1382.76 355.898 1383.78 356.313C1384.8 356.729 1385.97 356.236 1386.38 355.213C1395.54 332.681 1384.69 306.996 1362.16 297.844C1343.3 290.183 1322.22 296.536 1310.49 312.028C1310.44 299.629 1303.02 287.905 1290.82 282.949C1274.69 276.398 1256.3 284.163 1249.75 300.293C1249.34 301.316 1249.83 302.483 1250.85 302.899C1251.88 303.314 1253.04 302.822 1253.46 301.798C1259.18 287.715 1275.23 280.935 1289.32 286.655C1303.4 292.376 1310.18 308.431 1304.46 322.514C1304.04 323.538 1304.54 324.704 1305.56 325.12C1306.51 325.506 1307.59 325.108 1308.07 324.227C1308.25 324.045 1308.39 323.827 1308.5 323.576Z"/>
</mask>
<path fill-rule="evenodd" clip-rule="evenodd" d="M1308.5 323.576C1316.82 303.091 1340.17 293.23 1360.65 301.55C1381.14 309.871 1391 333.223 1382.68 353.708C1382.26 354.731 1382.76 355.898 1383.78 356.313C1384.8 356.729 1385.97 356.236 1386.38 355.213C1395.54 332.681 1384.69 306.996 1362.16 297.844C1343.3 290.183 1322.22 296.536 1310.49 312.028C1310.44 299.629 1303.02 287.905 1290.82 282.949C1274.69 276.398 1256.3 284.163 1249.75 300.293C1249.34 301.316 1249.83 302.483 1250.85 302.899C1251.88 303.314 1253.04 302.822 1253.46 301.798C1259.18 287.715 1275.23 280.935 1289.32 286.655C1303.4 292.376 1310.18 308.431 1304.46 322.514C1304.04 323.538 1304.54 324.704 1305.56 325.12C1306.51 325.506 1307.59 325.108 1308.07 324.227C1308.25 324.045 1308.39 323.827 1308.5 323.576Z" fill="white"/>
<path d="M1310.49 312.028L1306.49 312.045L1306.54 323.865L1313.68 314.443L1310.49 312.028ZM1308.07 324.227L1305.22 321.419L1304.82 321.819L1304.56 322.312L1308.07 324.227ZM1362.16 297.844C1339.63 288.692 1313.94 299.539 1304.79 322.071L1312.2 325.081C1319.69 306.643 1340.71 297.767 1359.15 305.256L1362.16 297.844ZM1386.38 355.213C1395.54 332.681 1384.69 306.996 1362.16 297.844L1359.15 305.256C1377.59 312.746 1386.46 333.764 1378.97 352.202L1386.38 355.213ZM1385.28 352.607C1386.31 353.023 1386.8 354.19 1386.38 355.213L1378.97 352.202C1377.73 355.273 1379.2 358.772 1382.27 360.019L1385.28 352.607ZM1382.68 353.708C1383.09 352.684 1384.26 352.192 1385.28 352.607L1382.27 360.019C1385.34 361.266 1388.84 359.788 1390.09 356.718L1382.68 353.708ZM1360.65 301.55C1381.14 309.871 1391 333.223 1382.68 353.708L1390.09 356.718C1400.07 332.14 1388.24 304.122 1363.66 294.138L1360.65 301.55ZM1313.68 314.443C1324.35 300.357 1343.51 294.587 1360.65 301.55L1363.66 294.138C1343.08 285.779 1320.1 292.715 1307.3 309.613L1313.68 314.443ZM1289.32 286.655C1299.96 290.979 1306.44 301.212 1306.49 312.045L1314.49 312.01C1314.43 298.047 1306.08 284.83 1292.33 279.244L1289.32 286.655ZM1253.46 301.798C1259.18 287.715 1275.23 280.935 1289.32 286.655L1292.33 279.244C1274.15 271.86 1253.43 280.61 1246.05 298.788L1253.46 301.798ZM1252.36 299.193C1253.38 299.608 1253.87 300.775 1253.46 301.798L1246.05 298.788C1244.8 301.858 1246.28 305.358 1249.35 306.605L1252.36 299.193ZM1249.75 300.293C1250.17 299.27 1251.33 298.777 1252.36 299.193L1249.35 306.605C1252.42 307.852 1255.92 306.374 1257.16 303.304L1249.75 300.293ZM1290.82 282.949C1274.69 276.398 1256.3 284.163 1249.75 300.293L1257.16 303.304C1262.05 291.267 1275.78 285.472 1287.81 290.361L1290.82 282.949ZM1308.17 324.02C1314.72 307.889 1306.95 289.501 1290.82 282.949L1287.81 290.361C1299.85 295.251 1305.64 308.972 1300.75 321.009L1308.17 324.02ZM1307.07 321.414C1308.09 321.83 1308.58 322.996 1308.17 324.02L1300.75 321.009C1299.51 324.079 1300.99 327.579 1304.06 328.826L1307.07 321.414ZM1304.56 322.312C1305.04 321.427 1306.11 321.026 1307.07 321.414L1304.06 328.826C1306.91 329.987 1310.14 328.788 1311.58 326.142L1304.56 322.312ZM1304.79 322.071C1304.89 321.827 1305.04 321.605 1305.22 321.419L1310.92 327.034C1311.46 326.485 1311.9 325.826 1312.2 325.081L1304.79 322.071Z" fill="#D9D5FB" mask="url(#path-33-inside-6_16_22)"/>
<mask id="path-35-inside-7_16_22" fill="white">
<path fill-rule="evenodd" clip-rule="evenodd" d="M762.188 309.158C753.867 288.673 730.516 278.812 710.031 287.133C689.546 295.453 679.684 318.805 688.005 339.29C688.421 340.313 687.928 341.48 686.905 341.896C685.881 342.311 684.715 341.819 684.299 340.795C675.147 318.264 685.994 292.579 708.525 283.427C727.387 275.765 748.459 282.119 760.192 297.61C760.247 285.212 767.661 273.487 779.861 268.532C795.991 261.98 814.379 269.745 820.931 285.875C821.346 286.899 820.854 288.065 819.83 288.481C818.807 288.897 817.64 288.404 817.225 287.381C811.504 273.297 795.45 266.517 781.366 272.238C767.282 277.958 760.503 294.013 766.223 308.097C766.639 309.12 766.146 310.287 765.123 310.702C764.171 311.089 763.096 310.69 762.615 309.809C762.437 309.628 762.29 309.409 762.188 309.158Z"/>
</mask>
<path fill-rule="evenodd" clip-rule="evenodd" d="M762.188 309.158C753.867 288.673 730.516 278.812 710.031 287.133C689.546 295.453 679.684 318.805 688.005 339.29C688.421 340.313 687.928 341.48 686.905 341.896C685.881 342.311 684.715 341.819 684.299 340.795C675.147 318.264 685.994 292.579 708.525 283.427C727.387 275.765 748.459 282.119 760.192 297.61C760.247 285.212 767.661 273.487 779.861 268.532C795.991 261.98 814.379 269.745 820.931 285.875C821.346 286.899 820.854 288.065 819.83 288.481C818.807 288.897 817.64 288.404 817.225 287.381C811.504 273.297 795.45 266.517 781.366 272.238C767.282 277.958 760.503 294.013 766.223 308.097C766.639 309.12 766.146 310.287 765.123 310.702C764.171 311.089 763.096 310.69 762.615 309.809C762.437 309.628 762.29 309.409 762.188 309.158Z" fill="white"/>
<path d="M760.192 297.61L764.192 297.628L764.139 309.447L757.003 300.025L760.192 297.61ZM762.615 309.809L765.465 307.002L765.858 307.401L766.127 307.894L762.615 309.809ZM708.525 283.427C731.057 274.275 756.742 285.121 765.894 307.653L758.482 310.664C750.993 292.225 729.974 283.349 711.536 290.839L708.525 283.427ZM684.299 340.795C675.147 318.264 685.994 292.579 708.525 283.427L711.536 290.839C693.098 298.328 684.222 319.346 691.711 337.785L684.299 340.795ZM685.399 338.19C684.376 338.605 683.883 339.772 684.299 340.795L691.711 337.785C692.958 340.855 691.48 344.355 688.41 345.602L685.399 338.19ZM688.005 339.29C687.589 338.267 686.423 337.774 685.399 338.19L688.41 345.602C685.34 346.849 681.84 345.371 680.593 342.301L688.005 339.29ZM710.031 287.133C689.546 295.453 679.684 318.805 688.005 339.29L680.593 342.301C670.61 317.722 682.441 289.704 707.02 279.721L710.031 287.133ZM757.003 300.025C746.335 285.94 727.174 280.169 710.031 287.133L707.02 279.721C727.601 271.361 750.583 278.298 763.38 295.195L757.003 300.025ZM781.366 272.238C770.72 276.562 764.24 286.794 764.192 297.628L756.192 297.592C756.254 283.629 764.602 270.412 778.355 264.826L781.366 272.238ZM817.225 287.381C811.504 273.297 795.45 266.517 781.366 272.238L778.355 264.826C796.533 257.443 817.253 266.193 824.637 284.37L817.225 287.381ZM818.325 284.775C817.302 285.191 816.809 286.357 817.225 287.381L824.637 284.37C825.884 287.44 824.406 290.94 821.336 292.187L818.325 284.775ZM820.931 285.875C820.515 284.852 819.348 284.359 818.325 284.775L821.336 292.187C818.266 293.434 814.766 291.956 813.519 288.886L820.931 285.875ZM779.861 268.532C795.991 261.98 814.379 269.745 820.931 285.875L813.519 288.886C808.63 276.849 794.908 271.055 782.871 275.944L779.861 268.532ZM762.517 309.602C755.965 293.471 763.73 275.084 779.861 268.532L782.871 275.944C770.834 280.833 765.04 294.554 769.929 306.591L762.517 309.602ZM763.617 306.996C762.594 307.412 762.101 308.579 762.517 309.602L769.929 306.591C771.176 309.661 769.698 313.161 766.628 314.408L763.617 306.996ZM766.127 307.894C765.645 307.009 764.572 306.609 763.617 306.996L766.628 314.408C763.771 315.569 760.547 314.37 759.104 311.724L766.127 307.894ZM765.894 307.653C765.795 307.409 765.648 307.187 765.465 307.002L759.766 312.616C759.225 312.068 758.785 311.409 758.482 310.664L765.894 307.653Z" fill="#D9D5FB" mask="url(#path-35-inside-7_16_22)"/>
<mask id="path-37-inside-8_16_22" fill="white">
<path fill-rule="evenodd" clip-rule="evenodd" d="M1039.97 817.511C1045.63 800.979 1063.62 792.166 1080.15 797.827C1096.69 803.488 1105.5 821.479 1099.84 838.012C1099.48 839.057 1100.04 840.194 1101.08 840.552C1102.13 840.91 1103.27 840.353 1103.62 839.308C1110 820.685 1100.07 800.419 1081.45 794.042C1066.23 788.831 1049.91 794.51 1040.98 806.925C1039.97 797.306 1033.53 788.67 1023.78 785.331C1010.39 780.746 995.817 787.884 991.232 801.276C990.874 802.321 991.431 803.458 992.476 803.816C993.521 804.173 994.658 803.616 995.016 802.571C998.886 791.27 1011.18 785.246 1022.49 789.115C1033.79 792.985 1039.81 805.284 1035.94 816.585C1035.58 817.63 1036.14 818.767 1037.19 819.125C1038.14 819.452 1039.17 819.016 1039.61 818.143C1039.77 817.961 1039.89 817.749 1039.97 817.511Z"/>
</mask>
<path fill-rule="evenodd" clip-rule="evenodd" d="M1039.97 817.511C1045.63 800.979 1063.62 792.166 1080.15 797.827C1096.69 803.488 1105.5 821.479 1099.84 838.012C1099.48 839.057 1100.04 840.194 1101.08 840.552C1102.13 840.91 1103.27 840.353 1103.62 839.308C1110 820.685 1100.07 800.419 1081.45 794.042C1066.23 788.831 1049.91 794.51 1040.98 806.925C1039.97 797.306 1033.53 788.67 1023.78 785.331C1010.39 780.746 995.817 787.884 991.232 801.276C990.874 802.321 991.431 803.458 992.476 803.816C993.521 804.173 994.658 803.616 995.016 802.571C998.886 791.27 1011.18 785.246 1022.49 789.115C1033.79 792.985 1039.81 805.284 1035.94 816.585C1035.58 817.63 1036.14 818.767 1037.19 819.125C1038.14 819.452 1039.17 819.016 1039.61 818.143C1039.77 817.961 1039.89 817.749 1039.97 817.511Z" fill="white"/>
<path d="M1040.98 806.925L1037 807.342L1038.09 817.781L1044.22 809.262L1040.98 806.925ZM1039.61 818.143L1036.54 815.584L1036.25 815.929L1036.05 816.328L1039.61 818.143ZM1081.45 794.042C1062.83 787.666 1042.56 797.593 1036.18 816.216L1043.75 818.807C1048.7 804.365 1064.42 796.665 1078.86 801.611L1081.45 794.042ZM1103.62 839.308C1110 820.685 1100.07 800.419 1081.45 794.042L1078.86 801.611C1093.3 806.556 1101 822.274 1096.06 836.716L1103.62 839.308ZM1102.38 836.768C1103.42 837.126 1103.98 838.263 1103.62 839.308L1096.06 836.716C1094.98 839.851 1096.65 843.263 1099.79 844.336L1102.38 836.768ZM1099.84 838.012C1100.2 836.967 1101.33 836.41 1102.38 836.768L1099.79 844.336C1102.92 845.41 1106.33 843.739 1107.41 840.604L1099.84 838.012ZM1080.15 797.827C1096.69 803.488 1105.5 821.479 1099.84 838.012L1107.41 840.604C1114.5 819.891 1103.46 797.35 1082.75 790.258L1080.15 797.827ZM1044.22 809.262C1052.16 798.237 1066.65 793.202 1080.15 797.827L1082.75 790.258C1065.81 784.46 1047.67 790.782 1037.73 804.588L1044.22 809.262ZM1022.49 789.115C1030.71 791.931 1036.15 799.214 1037 807.342L1044.95 806.509C1043.79 795.398 1036.36 785.409 1025.08 781.547L1022.49 789.115ZM995.016 802.571C998.886 791.27 1011.18 785.246 1022.49 789.115L1025.08 781.547C1009.6 776.246 992.749 784.498 987.447 799.98L995.016 802.571ZM993.772 800.031C994.817 800.389 995.374 801.526 995.016 802.571L987.447 799.98C986.374 803.115 988.045 806.526 991.18 807.6L993.772 800.031ZM991.232 801.276C991.59 800.231 992.727 799.673 993.772 800.031L991.18 807.6C994.315 808.673 997.727 807.002 998.8 803.867L991.232 801.276ZM1023.78 785.331C1010.39 780.746 995.817 787.884 991.232 801.276L998.8 803.867C1001.95 794.656 1011.98 789.746 1021.19 792.9L1023.78 785.331ZM1039.73 817.881C1044.31 804.489 1037.17 789.916 1023.78 785.331L1021.19 792.9C1030.4 796.054 1035.31 806.078 1032.16 815.289L1039.73 817.881ZM1038.48 815.341C1039.53 815.699 1040.08 816.836 1039.73 817.881L1032.16 815.289C1031.08 818.424 1032.75 821.836 1035.89 822.909L1038.48 815.341ZM1036.05 816.328C1036.5 815.451 1037.52 815.013 1038.48 815.341L1035.89 822.909C1038.75 823.89 1041.84 822.581 1043.18 819.958L1036.05 816.328ZM1036.18 816.216C1036.26 815.985 1036.39 815.771 1036.54 815.584L1042.69 820.701C1043.15 820.151 1043.51 819.512 1043.75 818.807L1036.18 816.216Z" fill="#D9D5FB" mask="url(#path-37-inside-8_16_22)"/>
<mask id="path-39-inside-9_16_22" fill="white">
<path fill-rule="evenodd" clip-rule="evenodd" d="M914.704 983.888C918.371 962.209 902.55 941.229 879.038 937.251C855.525 933.273 833.683 947.883 830.016 969.561C829.832 970.65 828.799 971.384 827.71 971.2C826.621 971.016 825.888 969.983 826.072 968.894C830.149 944.793 854.267 929.004 879.705 933.307C901.149 936.935 917.011 953.739 919.02 973.365C925.847 962.651 939.226 956.607 953.117 958.957C971.27 962.028 983.882 978.35 980.958 995.638C980.773 996.728 979.741 997.461 978.652 997.277C977.563 997.093 976.829 996.06 977.014 994.971C979.528 980.105 968.678 965.646 952.45 962.901C936.222 960.155 921.219 970.241 918.704 985.107C918.52 986.196 917.488 986.93 916.399 986.746C915.397 986.576 914.695 985.689 914.733 984.7C914.67 984.442 914.657 984.167 914.704 983.888Z"/>
</mask>
<path fill-rule="evenodd" clip-rule="evenodd" d="M914.704 983.888C918.371 962.209 902.55 941.229 879.038 937.251C855.525 933.273 833.683 947.883 830.016 969.561C829.832 970.65 828.799 971.384 827.71 971.2C826.621 971.016 825.888 969.983 826.072 968.894C830.149 944.793 854.267 929.004 879.705 933.307C901.149 936.935 917.011 953.739 919.02 973.365C925.847 962.651 939.226 956.607 953.117 958.957C971.27 962.028 983.882 978.35 980.958 995.638C980.773 996.728 979.741 997.461 978.652 997.277C977.563 997.093 976.829 996.06 977.014 994.971C979.528 980.105 968.678 965.646 952.45 962.901C936.222 960.155 921.219 970.241 918.704 985.107C918.52 986.196 917.488 986.93 916.399 986.746C915.397 986.576 914.695 985.689 914.733 984.7C914.67 984.442 914.657 984.167 914.704 983.888Z" fill="white"/>
<path d="M919.02 973.365L922.393 975.515L916.212 985.215L915.041 973.773L919.02 973.365ZM914.733 984.7L918.617 983.742L918.752 984.289L918.73 984.853L914.733 984.7ZM879.705 933.307C905.146 937.611 922.724 960.457 918.648 984.555L910.76 983.221C914.018 963.962 899.954 944.846 878.37 941.195L879.705 933.307ZM826.072 968.894C830.148 944.797 854.263 929.003 879.705 933.307L878.37 941.195C856.787 937.544 837.218 950.97 833.96 970.229L826.072 968.894ZM828.378 967.256C827.288 967.072 826.256 967.805 826.072 968.894L833.96 970.229C833.407 973.496 830.31 975.696 827.043 975.144L828.378 967.256ZM830.016 969.561C830.2 968.472 829.467 967.44 828.378 967.256L827.043 975.144C823.776 974.591 821.575 971.494 822.128 968.227L830.016 969.561ZM879.038 937.251C855.522 933.273 833.683 947.886 830.016 969.561L822.128 968.227C826.615 941.7 853.012 924.735 880.372 929.363L879.038 937.251ZM915.041 973.773C913.227 956.053 898.827 940.599 879.038 937.251L880.372 929.363C903.472 933.271 920.796 951.425 922.999 972.958L915.041 973.773ZM952.45 962.901C940.073 960.807 928.319 966.216 922.393 975.515L915.647 971.216C923.376 959.086 938.379 952.407 953.784 955.013L952.45 962.901ZM977.014 994.971C979.528 980.11 968.683 965.647 952.45 962.901L953.784 955.013C973.858 958.409 988.237 976.59 984.901 996.306L977.014 994.971ZM979.319 993.333C978.23 993.149 977.198 993.882 977.014 994.971L984.901 996.306C984.349 999.573 981.252 1001.77 977.985 1001.22L979.319 993.333ZM980.958 995.638C981.142 994.549 980.408 993.517 979.319 993.333L977.985 1001.22C974.717 1000.67 972.517 997.571 973.07 994.304L980.958 995.638ZM953.117 958.957C971.276 962.029 983.881 978.355 980.958 995.638L973.07 994.304C975.175 981.856 966.08 969.263 951.783 966.845L953.117 958.957ZM914.76 984.44C917.684 967.156 934.958 955.885 953.117 958.957L951.783 966.845C937.485 964.426 924.754 973.326 922.648 985.774L914.76 984.44ZM917.066 982.802C915.977 982.617 914.944 983.351 914.76 984.44L922.648 985.774C922.095 989.042 918.999 991.242 915.731 990.69L917.066 982.802ZM918.73 984.853C918.768 983.859 918.071 982.972 917.066 982.802L915.731 990.69C912.722 990.18 910.622 987.518 910.736 984.547L918.73 984.853ZM918.648 984.555C918.694 984.284 918.682 984.005 918.617 983.742L910.85 985.658C910.657 984.878 910.62 984.05 910.76 983.221L918.648 984.555Z" fill="#D9D5FB" mask="url(#path-39-inside-9_16_22)"/>
<mask id="path-41-inside-10_16_22" fill="white">
<path fill-rule="evenodd" clip-rule="evenodd" d="M599.303 1293C593.035 1275.53 601.015 1257 616.669 1251.38C632.323 1245.77 650.262 1255 656.53 1272.46C656.903 1273.5 658.048 1274.04 659.088 1273.67C660.127 1273.3 660.668 1272.15 660.295 1271.11C653.393 1251.88 633.349 1241.15 615.318 1247.62C600.657 1252.88 592.197 1267.76 593.258 1283.48C586.5 1276.32 576.394 1273.22 567.003 1276.59C553.984 1281.26 547.808 1296.4 552.75 1310.18C553.123 1311.22 554.269 1311.76 555.308 1311.38C556.348 1311.01 556.888 1309.87 556.515 1308.83C552.207 1296.82 557.712 1284.18 568.353 1280.36C578.995 1276.54 591.282 1282.8 595.59 1294.81C595.963 1295.85 597.108 1296.39 598.148 1296.01C599.112 1295.67 599.647 1294.66 599.421 1293.68C599.422 1293.45 599.384 1293.22 599.303 1293Z"/>
</mask>
<path fill-rule="evenodd" clip-rule="evenodd" d="M599.303 1293C593.035 1275.53 601.015 1257 616.669 1251.38C632.323 1245.77 650.262 1255 656.53 1272.46C656.903 1273.5 658.048 1274.04 659.088 1273.67C660.127 1273.3 660.668 1272.15 660.295 1271.11C653.393 1251.88 633.349 1241.15 615.318 1247.62C600.657 1252.88 592.197 1267.76 593.258 1283.48C586.5 1276.32 576.394 1273.22 567.003 1276.59C553.984 1281.26 547.808 1296.4 552.75 1310.18C553.123 1311.22 554.269 1311.76 555.308 1311.38C556.348 1311.01 556.888 1309.87 556.515 1308.83C552.207 1296.82 557.712 1284.18 568.353 1280.36C578.995 1276.54 591.282 1282.8 595.59 1294.81C595.963 1295.85 597.108 1296.39 598.148 1296.01C599.112 1295.67 599.647 1294.66 599.421 1293.68C599.422 1293.45 599.384 1293.22 599.303 1293Z" fill="white"/>
<path d="M593.258 1283.48L590.349 1286.23L597.999 1294.33L597.249 1283.21L593.258 1283.48ZM599.421 1293.68L595.421 1293.66L595.419 1294.13L595.525 1294.59L599.421 1293.68ZM615.318 1247.62C597.293 1254.08 588.634 1275.1 595.538 1294.35L603.068 1291.65C597.437 1275.95 604.738 1259.91 618.02 1255.15L615.318 1247.62ZM660.295 1271.11C653.39 1251.87 633.343 1241.15 615.318 1247.62L618.02 1255.15C631.302 1250.38 647.134 1258.12 652.765 1273.81L660.295 1271.11ZM657.737 1269.91C658.777 1269.53 659.922 1270.07 660.295 1271.11L652.765 1273.81C653.884 1276.93 657.32 1278.55 660.439 1277.44L657.737 1269.91ZM656.53 1272.46C656.157 1271.42 656.697 1270.28 657.737 1269.91L660.439 1277.44C663.558 1276.32 665.179 1272.88 664.06 1269.76L656.53 1272.46ZM616.669 1251.38C632.318 1245.77 650.26 1254.99 656.53 1272.46L664.06 1269.76C656.525 1248.76 634.38 1236.53 613.967 1243.85L616.669 1251.38ZM597.249 1283.21C596.291 1269.02 603.923 1255.96 616.669 1251.38L613.967 1243.85C597.39 1249.8 588.103 1266.51 589.267 1283.75L597.249 1283.21ZM568.353 1280.36C576.055 1277.6 584.534 1280.07 590.349 1286.23L596.167 1280.74C588.467 1272.58 576.733 1268.85 565.652 1272.83L568.353 1280.36ZM556.515 1308.83C552.205 1296.81 557.719 1284.17 568.353 1280.36L565.652 1272.83C550.249 1278.35 543.411 1295.99 548.985 1311.53L556.515 1308.83ZM553.957 1307.62C554.997 1307.25 556.142 1307.79 556.515 1308.83L548.985 1311.53C550.104 1314.65 553.54 1316.27 556.659 1315.15L553.957 1307.62ZM552.75 1310.18C552.377 1309.14 552.918 1307.99 553.957 1307.62L556.659 1315.15C559.778 1314.03 561.399 1310.59 560.28 1307.48L552.75 1310.18ZM567.003 1276.59C553.992 1281.26 547.805 1296.39 552.75 1310.18L560.28 1307.48C556.61 1297.25 561.432 1287.09 569.704 1284.12L567.003 1276.59ZM599.355 1293.46C594.409 1279.67 580.013 1271.93 567.003 1276.59L569.704 1284.12C577.976 1281.16 588.154 1285.93 591.825 1296.16L599.355 1293.46ZM596.797 1292.25C597.836 1291.88 598.982 1292.42 599.355 1293.46L591.825 1296.16C592.944 1299.28 596.379 1300.9 599.498 1299.78L596.797 1292.25ZM595.525 1294.59C595.298 1293.61 595.829 1292.6 596.797 1292.25L599.498 1299.78C602.396 1298.74 603.997 1295.71 603.318 1292.78L595.525 1294.59ZM595.538 1294.35C595.459 1294.13 595.42 1293.9 595.421 1293.66L603.421 1293.7C603.424 1293.01 603.309 1292.32 603.068 1291.65L595.538 1294.35Z" fill="#D9D5FB" mask="url(#path-41-inside-10_16_22)"/>
<mask id="path-43-inside-11_16_22" fill="white">
<path fill-rule="evenodd" clip-rule="evenodd" d="M1399.5 622.576C1407.82 602.091 1431.17 592.23 1451.65 600.55C1472.14 608.871 1482 632.223 1473.68 652.708C1473.26 653.731 1473.76 654.898 1474.78 655.313C1475.8 655.729 1476.97 655.236 1477.38 654.213C1486.54 631.681 1475.69 605.996 1453.16 596.844C1434.3 589.183 1413.22 595.536 1401.49 611.028C1401.44 598.629 1394.02 586.905 1381.82 581.949C1365.69 575.398 1347.3 583.163 1340.75 599.293C1340.34 600.316 1340.83 601.483 1341.85 601.899C1342.88 602.314 1344.04 601.822 1344.46 600.798C1350.18 586.715 1366.23 579.935 1380.32 585.655C1394.4 591.376 1401.18 607.431 1395.46 621.514C1395.04 622.538 1395.54 623.704 1396.56 624.12C1397.51 624.506 1398.59 624.108 1399.07 623.227C1399.25 623.045 1399.39 622.827 1399.5 622.576Z"/>
</mask>
<path fill-rule="evenodd" clip-rule="evenodd" d="M1399.5 622.576C1407.82 602.091 1431.17 592.23 1451.65 600.55C1472.14 608.871 1482 632.223 1473.68 652.708C1473.26 653.731 1473.76 654.898 1474.78 655.313C1475.8 655.729 1476.97 655.236 1477.38 654.213C1486.54 631.681 1475.69 605.996 1453.16 596.844C1434.3 589.183 1413.22 595.536 1401.49 611.028C1401.44 598.629 1394.02 586.905 1381.82 581.949C1365.69 575.398 1347.3 583.163 1340.75 599.293C1340.34 600.316 1340.83 601.483 1341.85 601.899C1342.88 602.314 1344.04 601.822 1344.46 600.798C1350.18 586.715 1366.23 579.935 1380.32 585.655C1394.4 591.376 1401.18 607.431 1395.46 621.514C1395.04 622.538 1395.54 623.704 1396.56 624.12C1397.51 624.506 1398.59 624.108 1399.07 623.227C1399.25 623.045 1399.39 622.827 1399.5 622.576Z" fill="white"/>
<path d="M1401.49 611.028L1397.49 611.045L1397.54 622.865L1404.68 613.443L1401.49 611.028ZM1399.07 623.227L1396.22 620.419L1395.82 620.819L1395.56 621.312L1399.07 623.227ZM1453.16 596.844C1430.63 587.692 1404.94 598.539 1395.79 621.071L1403.2 624.081C1410.69 605.643 1431.71 596.767 1450.15 604.256L1453.16 596.844ZM1477.38 654.213C1486.54 631.681 1475.69 605.996 1453.16 596.844L1450.15 604.256C1468.59 611.746 1477.46 632.764 1469.97 651.202L1477.38 654.213ZM1476.28 651.607C1477.31 652.023 1477.8 653.19 1477.38 654.213L1469.97 651.202C1468.73 654.273 1470.2 657.772 1473.27 659.019L1476.28 651.607ZM1473.68 652.708C1474.09 651.684 1475.26 651.192 1476.28 651.607L1473.27 659.019C1476.34 660.266 1479.84 658.788 1481.09 655.718L1473.68 652.708ZM1451.65 600.55C1472.14 608.871 1482 632.223 1473.68 652.708L1481.09 655.718C1491.07 631.14 1479.24 603.122 1454.66 593.138L1451.65 600.55ZM1404.68 613.443C1415.35 599.357 1434.51 593.587 1451.65 600.55L1454.66 593.138C1434.08 584.779 1411.1 591.715 1398.3 608.613L1404.68 613.443ZM1380.32 585.655C1390.96 589.979 1397.44 600.212 1397.49 611.045L1405.49 611.01C1405.43 597.047 1397.08 583.83 1383.33 578.244L1380.32 585.655ZM1344.46 600.798C1350.18 586.715 1366.23 579.935 1380.32 585.655L1383.33 578.244C1365.15 570.86 1344.43 579.61 1337.05 597.788L1344.46 600.798ZM1343.36 598.193C1344.38 598.608 1344.87 599.775 1344.46 600.798L1337.05 597.788C1335.8 600.858 1337.28 604.358 1340.35 605.605L1343.36 598.193ZM1340.75 599.293C1341.17 598.27 1342.33 597.777 1343.36 598.193L1340.35 605.605C1343.42 606.852 1346.92 605.374 1348.16 602.304L1340.75 599.293ZM1381.82 581.949C1365.69 575.398 1347.3 583.163 1340.75 599.293L1348.16 602.304C1353.05 590.267 1366.78 584.472 1378.81 589.361L1381.82 581.949ZM1399.17 623.02C1405.72 606.889 1397.95 588.501 1381.82 581.949L1378.81 589.361C1390.85 594.251 1396.64 607.972 1391.75 620.009L1399.17 623.02ZM1398.07 620.414C1399.09 620.83 1399.58 621.996 1399.17 623.02L1391.75 620.009C1390.51 623.079 1391.99 626.579 1395.06 627.826L1398.07 620.414ZM1395.56 621.312C1396.04 620.427 1397.11 620.026 1398.07 620.414L1395.06 627.826C1397.91 628.987 1401.14 627.788 1402.58 625.142L1395.56 621.312ZM1395.79 621.071C1395.89 620.827 1396.04 620.605 1396.22 620.419L1401.92 626.034C1402.46 625.485 1402.9 624.826 1403.2 624.081L1395.79 621.071Z" fill="#D9D5FB" mask="url(#path-43-inside-11_16_22)"/>
<mask id="path-45-inside-12_16_22" fill="white">
<path fill-rule="evenodd" clip-rule="evenodd" d="M140.449 597.989C136.891 576.167 151.697 555.592 173.519 552.034C195.342 548.476 215.916 563.282 219.474 585.104C219.652 586.194 220.68 586.934 221.77 586.756C222.86 586.579 223.6 585.551 223.422 584.461C219.509 560.458 196.878 544.173 172.876 548.086C152.782 551.362 138.097 567.755 136.142 587.089C129.642 576.532 117.208 570.38 104.213 572.499C87.0292 575.3 75.3705 591.502 78.1722 608.685C78.35 609.775 79.3778 610.515 80.468 610.337C81.5582 610.159 82.2978 609.132 82.1201 608.041C79.6739 593.038 89.8533 578.893 104.856 576.447C119.859 574 134.005 584.18 136.451 599.183C136.629 600.273 137.657 601.013 138.747 600.835C139.761 600.67 140.471 599.769 140.423 598.767C140.481 598.519 140.493 598.256 140.449 597.989Z"/>
</mask>
<path fill-rule="evenodd" clip-rule="evenodd" d="M140.449 597.989C136.891 576.167 151.697 555.592 173.519 552.034C195.342 548.476 215.916 563.282 219.474 585.104C219.652 586.194 220.68 586.934 221.77 586.756C222.86 586.579 223.6 585.551 223.422 584.461C219.509 560.458 196.878 544.173 172.876 548.086C152.782 551.362 138.097 567.755 136.142 587.089C129.642 576.532 117.208 570.38 104.213 572.499C87.0292 575.3 75.3705 591.502 78.1722 608.685C78.35 609.775 79.3778 610.515 80.468 610.337C81.5582 610.159 82.2978 609.132 82.1201 608.041C79.6739 593.038 89.8533 578.893 104.856 576.447C119.859 574 134.005 584.18 136.451 599.183C136.629 600.273 137.657 601.013 138.747 600.835C139.761 600.67 140.471 599.769 140.423 598.767C140.481 598.519 140.493 598.256 140.449 597.989Z" fill="white"/>
<path d="M136.142 587.089L132.736 589.187L138.933 599.251L140.122 587.492L136.142 587.089ZM140.423 598.767L136.529 597.853L136.401 598.4L136.428 598.96L140.423 598.767ZM172.876 548.086C148.873 552 132.588 574.63 136.501 598.633L144.397 597.345C141.194 577.703 154.521 559.184 174.163 555.982L172.876 548.086ZM223.422 584.461C219.509 560.458 196.878 544.173 172.876 548.086L174.163 555.982C193.805 552.779 212.324 566.106 215.527 585.748L223.422 584.461ZM221.126 582.808C222.217 582.631 223.245 583.37 223.422 584.461L215.527 585.748C216.06 589.018 219.143 591.237 222.414 590.704L221.126 582.808ZM219.474 585.104C219.297 584.014 220.036 582.986 221.126 582.808L222.414 590.704C225.684 590.171 227.903 587.087 227.37 583.817L219.474 585.104ZM173.519 552.034C195.342 548.476 215.916 563.282 219.474 585.104L227.37 583.817C223.101 557.634 198.415 539.869 172.232 544.138L173.519 552.034ZM140.122 587.492C141.899 569.912 155.257 555.012 173.519 552.034L172.232 544.138C150.308 547.713 134.295 565.598 132.163 586.687L140.122 587.492ZM104.856 576.447C116.197 574.598 127.056 579.962 132.736 589.187L139.549 584.992C132.227 573.102 118.22 566.162 103.569 568.551L104.856 576.447ZM82.1201 608.041C79.6739 593.038 89.8533 578.893 104.856 576.447L103.569 568.551C84.2052 571.708 71.0672 589.965 74.2243 609.329L82.1201 608.041ZM79.8243 606.389C80.9145 606.211 81.9423 606.951 82.1201 608.041L74.2243 609.329C74.7576 612.599 77.8412 614.818 81.1117 614.285L79.8243 606.389ZM78.1722 608.685C77.9945 607.595 78.7341 606.567 79.8243 606.389L81.1117 614.285C84.3822 613.752 86.6012 610.668 86.068 607.398L78.1722 608.685ZM104.213 572.499C87.0292 575.3 75.3705 591.502 78.1722 608.685L86.068 607.398C83.9773 594.575 92.6773 582.485 105.5 580.395L104.213 572.499ZM140.399 598.539C137.597 581.356 121.396 569.697 104.213 572.499L105.5 580.395C118.323 578.304 130.412 587.004 132.503 599.827L140.399 598.539ZM138.103 596.887C139.193 596.709 140.221 597.449 140.399 598.539L132.503 599.827C133.036 603.097 136.12 605.316 139.39 604.783L138.103 596.887ZM136.428 598.96C136.379 597.954 137.087 597.053 138.103 596.887L139.39 604.783C142.435 604.287 144.564 601.585 144.418 598.574L136.428 598.96ZM136.501 598.633C136.459 598.373 136.469 598.107 136.529 597.853L144.317 599.681C144.493 598.931 144.526 598.139 144.397 597.345L136.501 598.633Z" fill="#D9D5FB" mask="url(#path-45-inside-12_16_22)"/>
</svg>
