<svg width="502" height="523" viewBox="0 0 502 523" fill="none" xmlns="http://www.w3.org/2000/svg">
<g clip-path="url(#clip0_1_18)">
<path d="M227.273 260.421C227.273 269.895 219.98 282.489 203.362 282.489C185.427 282.489 179.928 272.29 179.928 262.34C179.928 246.385 188.182 239.308 205.632 239.308C218.424 239.308 227.273 246.982 227.273 260.421ZM201.807 266.654C201.807 270.133 203.6 273.493 207.663 273.493C213.162 273.493 215.798 270.014 215.798 266.416C215.798 262.817 213.41 259.219 208.505 259.219C203.6 259.219 201.807 262.936 201.807 266.654Z" fill="white"/>
<path d="M275.232 248.065C300.748 257.161 309.141 271.793 300.887 295.114C295.734 309.667 282.416 321.695 256.207 312.361C231.92 303.702 227.778 281.495 232.683 267.648C239.639 248.016 256.544 241.405 275.232 248.065ZM260.736 275.67C253.571 273.115 248.211 277.131 246.348 282.39C244.485 287.648 246.526 294.1 254.572 296.963C260.518 299.08 264.878 295.104 266.671 290.024C268.593 284.587 267.553 278.096 260.736 275.67Z" fill="white"/>
<path d="M344.982 310.502C367.991 310.72 386.719 292.072 386.719 269.04C386.719 249.368 373.064 232.896 354.742 228.652C354.029 228.483 353.286 228.652 352.671 229.069C351.116 230.123 349.491 231.087 347.806 231.932C343.991 233.841 339.928 235.123 335.836 235.739C335.113 235.849 334.795 234.864 335.44 234.516C340.394 231.803 344.932 228.035 348.688 223.154C360.49 207.836 360.281 186.126 348.173 171.046C336.064 155.967 315.869 151.543 299.292 158.352C296.349 159.565 294.248 162.199 293.594 165.321C292.147 172.14 289.006 178.71 284.547 183.919C284.032 184.526 283.061 183.939 283.348 183.204C285.726 177.19 286.757 170.5 286.023 163.482C284.012 144.237 268.722 128.799 249.548 126.712C224.657 123.998 203.6 143.501 203.6 167.925C203.6 171.066 203.957 174.128 204.621 177.07C204.809 177.885 203.709 178.343 203.244 177.647C200.192 173.084 198.091 167.716 197.041 162.16C196.396 158.78 194.078 155.957 190.897 154.664C175.964 148.571 158.207 151.603 146.088 163.76C129.947 179.953 129.947 206.206 146.088 222.399C146.118 222.429 146.148 222.459 146.178 222.488C148.586 224.884 147.684 228.92 144.503 230.083C128.639 235.868 117.303 251.127 117.303 269.05C117.303 286.973 128.5 302.032 144.206 307.907C146.108 308.623 148.249 308.345 149.913 307.182C151.578 306.019 153.193 305.084 154.937 304.229C159.337 302.092 164.093 300.919 168.77 300.75C169.256 300.73 169.375 301.426 168.909 301.565C163.072 303.404 157.623 306.794 153.203 311.754C141.55 324.856 141.352 344.856 152.767 358.157C166.273 373.892 189.966 374.548 204.334 360.145C207.316 357.153 210.556 351.844 212.201 348.663C212.499 348.097 213.351 348.335 213.321 348.971C213.133 354.041 211.646 358.972 209.219 363.445C208.258 365.214 208.089 367.332 208.763 369.23C214.034 384.161 228.224 394.857 244.921 394.857C261.618 394.857 276.907 383.306 281.644 367.451C282.07 366.01 281.901 364.449 281.168 363.137C280.811 362.501 280.474 361.854 280.157 361.198C278.047 356.824 276.877 352.103 276.699 347.451C276.669 346.556 277.878 346.258 278.245 347.073C280.246 351.566 283.239 355.731 287.222 359.22C300.292 370.682 320.051 370.761 333.2 359.379C348.837 345.84 349.491 322.102 335.152 307.718C334.419 306.983 333.666 306.287 332.893 305.641C332.229 305.074 332.834 304.001 333.656 304.289C337.62 305.631 341.345 307.728 344.675 310.382C344.764 310.452 344.873 310.492 344.982 310.492V310.502ZM314.789 297.718C303.523 325.303 276.491 344.747 244.941 344.747C203.263 344.747 169.484 310.85 169.484 269.05C169.484 264.974 169.811 260.968 170.425 257.062C169.256 258.394 167.987 259.706 166.61 260.968C155.908 270.76 143.007 274.05 137.805 268.324C132.602 262.598 137.051 250.014 147.763 240.222C151.955 236.395 156.473 233.562 160.744 231.872C166.174 233.92 171.951 234.795 177.678 234.467C177.698 234.507 177.728 234.536 177.748 234.576C177.768 234.536 177.787 234.497 177.817 234.457C187.558 233.87 197.12 229.854 204.561 222.399C208.267 218.681 211.131 214.427 213.133 209.884C215.422 204.695 221.605 202.607 226.668 205.122C232.178 207.856 238.391 209.397 244.96 209.397C253.165 209.397 260.805 206.991 267.236 202.856C269.901 201.136 273.419 202.607 274.043 205.729C275.609 213.631 279.444 221.166 285.548 227.29C294.01 235.779 305.187 239.894 316.285 239.636C316.276 239.646 316.266 239.656 316.256 239.666C323.4 239.626 332.923 244.258 341.068 252.429C352.79 264.189 357.22 278.801 350.967 285.074C345.002 291.058 331.456 287.271 320.041 276.684C319.328 283.841 317.613 290.7 315.057 297.132L314.819 297.708L314.789 297.718Z" fill="white"/>
</g>
<defs>
<clipPath id="clip0_1_18">
<rect width="502" height="523" fill="white"/>
</clipPath>
</defs>
</svg>
