<svg width="118" height="36" viewBox="0 0 118 36" fill="none" xmlns="http://www.w3.org/2000/svg">
<g clip-path="url(#clip0_98_97)">
<path d="M13.4122 0H10.2781C9.73867 0 9.30139 0.442027 9.30139 0.987294V4.15547C9.30139 4.70073 9.73867 5.14276 10.2781 5.14276H13.4122C13.9516 5.14276 14.3889 4.70073 14.3889 4.15547V0.987294C14.3889 0.442027 13.9516 0 13.4122 0Z" fill="white"/>
<path d="M117.023 0H113.889C113.35 0 112.912 0.442027 112.912 0.987294V4.15547C112.912 4.70073 113.35 5.14276 113.889 5.14276H117.023C117.563 5.14276 118 4.70073 118 4.15547V0.987294C118 0.442027 117.563 0 117.023 0Z" fill="white"/>
<path d="M112.267 5.14276H109.133C108.593 5.14276 108.156 5.58479 108.156 6.13005V9.29823C108.156 9.84349 108.593 10.2855 109.133 10.2855H112.267C112.806 10.2855 113.243 9.84349 113.243 9.29823V6.13005C113.243 5.58479 112.806 5.14276 112.267 5.14276Z" fill="white"/>
<path d="M33.4284 20.571H30.2943C29.7549 20.571 29.3176 21.0131 29.3176 21.5583V24.7265C29.3176 25.2718 29.7549 25.7138 30.2943 25.7138H33.4284C33.9678 25.7138 34.4051 25.2718 34.4051 24.7265V21.5583C34.4051 21.0131 33.9678 20.571 33.4284 20.571Z" fill="white"/>
<path d="M43.228 20.571H40.0939C39.5545 20.571 39.1172 21.0131 39.1172 21.5583V24.7265C39.1172 25.2718 39.5545 25.7138 40.0939 25.7138H43.228C43.7674 25.7138 44.2047 25.2718 44.2047 24.7265V21.5583C44.2047 21.0131 43.7674 20.571 43.228 20.571Z" fill="white"/>
<path d="M38.3282 25.7145H35.1941C34.6547 25.7145 34.2174 26.1565 34.2174 26.7018V29.8699C34.2174 30.4152 34.6547 30.8572 35.1941 30.8572H38.3282C38.8676 30.8572 39.3049 30.4152 39.3049 29.8699V26.7018C39.3049 26.1565 38.8676 25.7145 38.3282 25.7145Z" fill="white"/>
<path d="M87.6606 20.571H84.5265C83.9871 20.571 83.5498 21.0131 83.5498 21.5583V24.7265C83.5498 25.2718 83.9871 25.7138 84.5265 25.7138H87.6606C88.2 25.7138 88.6373 25.2718 88.6373 24.7265V21.5583C88.6373 21.0131 88.2 20.571 87.6606 20.571Z" fill="white"/>
<path d="M97.4596 20.571H94.3254C93.786 20.571 93.3488 21.0131 93.3488 21.5583V24.7265C93.3488 25.2718 93.786 25.7138 94.3254 25.7138H97.4596C97.999 25.7138 98.4363 25.2718 98.4363 24.7265V21.5583C98.4363 21.0131 97.999 20.571 97.4596 20.571Z" fill="white"/>
<path d="M107.487 10.2855H9.63239V6.13005C9.63239 5.58432 9.19489 5.14276 8.6557 5.14276H5.52226C4.98239 5.14276 4.54558 5.58501 4.54558 6.13005V10.2855H0.976685C0.436812 10.2855 0 10.7278 0 11.2728V19.5831C0 20.1288 0.437495 20.5703 0.976685 20.5703H4.8882V24.7258C4.8882 25.2715 5.32569 25.7131 5.86488 25.7131H9.80507V29.8686C9.80507 30.4143 10.2426 30.8559 10.7818 30.8559H14.7267V35.0113C14.7267 35.5571 15.1642 35.9986 15.7034 35.9986H33.4284C33.9683 35.9986 34.4051 35.5564 34.4051 35.0113V31.8438C34.4051 31.2981 33.9676 30.8566 33.4284 30.8566H29.491V26.7011C29.491 26.1554 29.0535 25.7138 28.5143 25.7138H25.3808C24.841 25.7138 24.4041 26.156 24.4041 26.7011V30.8566H19.6504V25.7138H23.6001C24.14 25.7138 24.5768 25.2716 24.5768 24.7265V20.571H28.5143C29.0541 20.571 29.491 20.1288 29.491 19.5837V15.4283H34.2174V19.5837C34.2174 20.1295 34.6549 20.571 35.1941 20.571H38.3275C38.8674 20.571 39.3042 20.1288 39.3042 19.5837V15.4283H44.0163V19.5837C44.0163 20.1295 44.4538 20.571 44.993 20.571H48.1265C48.6663 20.571 49.1031 20.1288 49.1031 19.5837V15.4283H54.2309V19.5837C54.2309 20.1295 54.6684 20.571 55.2076 20.571H59.1191V24.7265C59.1191 25.2722 59.5566 25.7138 60.0958 25.7138H64.036V29.8693C64.036 30.415 64.4735 30.8566 65.0126 30.8566H68.9576V35.012C68.9576 35.5578 69.3951 35.9993 69.9343 35.9993H87.6579C88.1978 35.9993 88.6346 35.5571 88.6346 35.012V31.8445C88.6346 31.2988 88.1971 30.8572 87.6579 30.8572H83.7205V26.7018C83.7205 26.156 83.283 25.7145 82.7438 25.7145H79.6104C79.0705 25.7145 78.6337 26.1567 78.6337 26.7018V30.8572H73.8799V25.7145H77.8297C78.3695 25.7145 78.8064 25.2722 78.8064 24.7272V20.5717H82.7438C83.2837 20.5717 83.7205 20.1295 83.7205 19.5844V15.429H88.4469V19.5844C88.4469 20.1302 88.8844 20.5717 89.4236 20.5717H92.5571C93.0969 20.5717 93.5338 20.1295 93.5338 19.5844V15.429H98.2459V19.5844C98.2459 20.1302 98.6834 20.5717 99.2225 20.5717H107.484C108.024 20.5717 108.46 20.1295 108.46 19.5844V11.2742C108.46 10.7285 108.023 10.2869 107.484 10.2869L107.487 10.2855Z" fill="white"/>
<path d="M92.5605 25.7145H89.4264C88.887 25.7145 88.4497 26.1565 88.4497 26.7018V29.8699C88.4497 30.4152 88.887 30.8572 89.4264 30.8572H92.5605C93.0999 30.8572 93.5372 30.4152 93.5372 29.8699V26.7018C93.5372 26.1565 93.0999 25.7145 92.5605 25.7145Z" fill="white"/>
</g>
<defs>
<clipPath id="clip0_98_97">
<rect width="118" height="36" fill="white"/>
</clipPath>
</defs>
</svg>
