<svg width="502" height="523" viewBox="0 0 502 523" fill="none" xmlns="http://www.w3.org/2000/svg">
<g clip-path="url(#clip0_1_18)">
<path d="M82.9384 114.316C71.5529 100.886 59.454 72.1084 71.543 61.7902C76.4381 57.6152 81.4124 62.5258 86.1092 67.0984C87.5163 68.4802 92.5996 72.1283 93.8284 71.0846C97.3659 68.0726 86.902 54.2056 94.9877 47.3168C104.292 39.3743 123.635 56.1142 138.538 73.6989C144.434 80.6473 148.278 90.9954 140.529 97.5959C136.041 101.423 129.63 100.906 125.646 96.1943C119.344 88.7588 125.904 81.1742 118.284 72.178C113.428 66.4523 110.406 67.0388 108.85 68.3708C100.22 75.7367 119.077 85.1305 108.474 94.1764C102.221 99.5045 98.3171 97.7947 94.7895 93.6396C91.7871 90.0908 89.399 85.2001 87.1398 82.546C85.6336 80.7766 84.4346 80.041 82.9384 81.3134C79.3414 84.385 82.7501 90.7568 85.4057 93.8881C89.6864 98.9279 96.1867 103.013 100.061 107.576C103.182 111.254 104.391 115.857 100.586 119.107C95.3543 123.57 90.2809 122.964 82.9384 114.306V114.316Z" fill="white"/>
<path d="M188.004 33.3405C192.195 43.4997 189.956 60.2494 172.149 67.6551C152.926 75.6473 142.511 67.168 138.102 56.5019C131.037 39.4042 136.744 28.1416 155.462 20.3582C169.176 14.6523 182.058 18.9466 188.004 33.3405ZM163.469 51.3726C165.005 55.1002 168.413 57.9035 172.773 56.0943C178.669 53.639 179.948 48.7383 178.352 44.8814C176.757 41.0245 172.605 38.2312 167.343 40.4181C162.349 42.4957 161.814 47.3864 163.459 51.3726H163.469Z" fill="white"/>
<path d="M257.456 24.5829C258.476 35.5274 251.411 50.8755 232.218 52.6748C211.498 54.6231 204.046 43.45 202.966 31.9488C201.242 13.5191 210.011 4.4434 230.176 2.54477C244.96 1.1531 256.009 9.0558 257.456 24.5729V24.5829ZM228.71 34.5631C229.086 38.5791 231.524 42.267 236.221 41.8197C242.572 41.2233 245.238 36.919 244.851 32.7639C244.465 28.6088 241.314 24.7121 235.646 25.239C230.256 25.7459 228.313 30.2589 228.71 34.5631Z" fill="white"/>
<path d="M302.026 15.1294C303.344 15.3382 305.177 15.1792 306.674 15.4177C308.259 15.6662 309.319 16.382 308.992 18.4198C308.12 23.897 294.06 19.7418 291.741 34.3146C290.968 39.1755 292.781 41.3724 294.813 41.6905C297.28 42.0881 300.045 39.4539 301.987 39.762C303.929 40.0702 304.375 43.4997 304.018 45.7065C302.344 56.2235 293.733 58.1023 285.013 56.7007C271.893 54.5933 268.187 48.9272 269.218 42.4758C270.456 34.7023 277.868 26.1932 278.611 21.5113C279.315 17.0977 272.626 19.374 273.36 14.7815C274.123 10.0101 283.695 17.3462 291.404 3.53882C292.444 1.53083 294.387 -0.427446 297.379 0.0596385C304.048 1.85887 296.031 14.1553 302.026 15.1195V15.1294Z" fill="white"/>
<path d="M367.931 55.0804C363.69 65.2197 350.244 75.3988 332.467 67.9036C313.283 59.822 311.965 46.4321 316.424 35.7858C323.569 18.718 335.568 14.871 354.237 22.7439C367.921 28.5094 373.946 40.7163 367.931 55.0804ZM337.897 50.2691C336.341 53.9869 336.748 58.3905 341.098 60.2196C346.984 62.6948 351.353 60.16 352.969 56.313C354.584 52.466 353.633 47.5355 348.391 45.3287C343.406 43.2213 339.562 46.283 337.897 50.2592V50.2691Z" fill="white"/>
<path d="M436.393 64.2455C441.664 68.6591 441.506 74.5836 437.562 79.3252C432.994 84.8223 423.194 90.6077 413.196 102.626C404.109 113.55 405.387 118.58 403.505 120.847C402.593 121.95 400.522 121.503 399.085 120.3C396.142 117.835 393.913 112.129 393.378 106.204C392.307 93.6595 404.991 72.8142 398.619 67.4861C396.36 65.5974 393.823 66.9692 392.109 69.0269C383.657 79.196 388.403 87.5957 382.577 94.6038C378.98 98.9279 372.113 97.2679 368.209 93.9974C362.798 89.4745 362.788 84.4545 365.295 81.4326C367.634 78.6195 371.776 76.7109 375.442 75.2397C378.682 73.9971 383.687 71.8897 390.999 63.0924C392.882 60.826 394.735 58.1818 396.38 55.3587C401.453 47.0186 398.451 43.2313 400.789 40.4082C402.216 38.6884 405.001 39.3942 407.329 41.3426C413.978 46.8993 416.178 57.9432 409.648 78.9276C408.122 83.8283 405.328 89.9914 409.024 93.0928C410.669 94.4646 413.037 93.9974 415.95 90.4984C422.233 82.9436 414.246 73.689 421.499 64.9612C425.671 59.9412 431.854 60.4681 436.383 64.2455H436.393Z" fill="white"/>
<path d="M493.221 366.894C492.041 369.499 491.407 376.775 488.791 382.56C485.888 389.002 480.369 390.811 471.916 386.974C442.913 373.803 473.036 351.536 463.444 347.182C452.475 342.202 452.217 345.81 444.25 342.192C439.544 340.055 439.405 335.572 441.397 331.168C443.973 325.462 448.184 323.941 451.92 325.641C457.043 327.967 463.157 335.661 479.893 343.266C487.127 346.546 491.804 347.888 494.816 347.292C496.124 347.003 497.759 347.063 499.305 347.759C501.663 348.832 502.991 351.298 501.078 355.542C499.344 359.369 496.738 359.071 493.211 366.894H493.221ZM479.368 355.294C476.772 354.111 472.719 353.753 471.322 356.844C470.182 359.369 471.639 363.962 477.079 366.427C479.764 367.65 482.489 367.023 484.075 363.514C485.284 360.821 484.57 357.65 479.368 355.284V355.294Z" fill="white"/>
<path d="M447.907 429.271C445.35 427.323 443.735 423.843 440.752 421.567C437.482 419.082 432.845 417.223 428.128 415.762C417.615 412.352 406.457 415.533 401.136 411.467C397.589 408.764 397.064 402.064 400.353 397.72C402.94 394.3 408.578 389.827 412.978 393.187C414.325 394.221 415.356 395.672 416.703 396.696C419.963 399.181 424.739 397.769 428.307 393.068C431.329 389.081 432.023 384.33 428.475 381.616C426.701 380.264 424.958 380.055 423.679 379.081C420.062 376.318 420.776 370.801 423.957 366.596C427.623 361.755 432.251 360.671 436.016 363.544C443.963 369.608 447.728 391.248 457.32 398.555C459.946 400.553 464.058 401.338 466.833 403.445C470.598 406.318 472.005 411.994 464.237 422.253C457.38 431.299 451.633 432.084 447.946 429.271H447.907ZM446.133 407.809C447.857 405.533 447.015 400.284 442.833 397.084C440.634 395.404 436.64 394.608 434.213 397.819C432.161 400.523 433.39 404.38 436.442 406.706C438.503 408.277 443.923 410.722 446.143 407.809H446.133Z" fill="white"/>
<path d="M392.763 472.989C391.445 471.299 391.505 469.202 392.902 468.099C396.132 465.554 398.728 471.926 406.091 466.12C407.775 464.798 408.717 462.234 407.23 460.335C401.998 453.645 387.145 467.85 375.472 452.929C364.84 439.351 369.675 427.7 378.227 420.961C388.403 412.949 398.52 413.853 404.02 420.891C405.893 423.287 406.992 427.303 404.753 429.072C402.573 430.782 399.947 426.259 393.982 430.961C391.812 432.671 391.227 435.404 393.041 437.73C399.095 445.474 407.518 432.472 418.645 446.687C424.046 453.585 423.432 463.387 414.246 470.623C406.596 476.647 397.708 479.331 392.743 472.999L392.763 472.989Z" fill="white"/>
<path d="M291.642 493.715C292.623 497.433 295.07 502.145 299.044 501.091C305.504 499.371 289.601 477.97 303.82 474.172C318.901 470.156 315.404 486.548 321.626 490.534C322.716 491.17 324.044 491.648 325.59 491.24C327.057 490.852 331.545 489.003 328.87 478.884C326.65 470.494 319.377 468.824 317.504 461.737C315.81 455.335 319.238 449.798 324.748 448.327C333.884 445.891 339.423 453.585 341.464 461.279C343.823 470.186 343.704 484.381 343.139 493.049C342.247 504.67 339.304 513.785 332.675 515.555C321.21 518.606 317.96 499.014 313.313 500.256C311.757 500.674 311.044 506.688 311.014 508.646C311.063 514.739 311.222 521.27 305.96 522.672C301.224 523.934 296.18 521.3 292.96 518.547C285.419 512.036 279.533 499.54 276.55 488.298C272.111 471.518 274.559 464.391 280.94 462.691C286.023 461.339 289.581 463.625 290.839 468.387C292.672 475.305 289.511 485.683 291.642 493.725V493.715Z" fill="white"/>
<path d="M212.023 493.447C212.598 482.463 221.803 468.317 241.066 469.321C261.845 470.405 267.603 482.552 267.008 494.093C266.047 512.572 256.059 520.276 235.834 519.213C221.01 518.437 211.22 509.004 212.033 493.437L212.023 493.447ZM241.908 487.761C242.117 483.735 240.244 479.729 235.537 479.48C229.166 479.142 225.905 483.019 225.687 487.184C225.469 491.349 228.026 495.664 233.704 495.962C239.104 496.25 241.69 492.065 241.908 487.751V487.761Z" fill="white"/>
<path d="M145.553 471.359C149.329 461.041 162.3 450.245 180.393 456.915C199.924 464.112 201.856 477.423 197.883 488.268C191.521 505.644 179.72 510.038 160.704 503.039C146.772 497.91 140.193 485.991 145.553 471.359ZM175.776 474.789C177.163 471.001 176.549 466.627 172.119 464.997C166.124 462.79 161.873 465.524 160.447 469.441C159.02 473.357 160.179 478.238 165.52 480.206C170.603 482.075 174.299 478.844 175.776 474.789Z" fill="white"/>
<path d="M101.27 460.464C100.17 459.699 98.4559 459.053 97.2073 458.178C95.8894 457.263 95.2453 456.16 96.4047 454.47C99.5558 449.907 110.436 459.768 118.819 447.631C121.613 443.585 120.92 440.822 119.235 439.649C117.184 438.217 113.547 439.4 111.942 438.277C110.327 437.154 111.407 433.873 112.675 432.034C118.72 423.287 127.291 425.335 134.544 430.374C145.464 437.969 146.356 444.689 142.64 450.057C138.171 456.528 127.816 460.971 125.131 464.868C122.594 468.546 129.6 469.391 126.954 473.218C124.209 477.184 118.74 466.419 105.838 475.504C104.035 476.856 101.438 477.781 98.9513 476.051C93.7194 471.538 106.244 463.924 101.26 460.464H101.27Z" fill="white"/>
<path d="M59.018 395.96C67.2029 388.644 83.7113 385.264 96.5335 399.698C110.376 415.285 105.818 427.929 97.2271 435.623C83.4536 447.939 70.9683 446.229 57.492 431.06C47.6128 419.947 47.4146 406.328 59.018 395.96ZM84.068 413.277C87.0704 410.593 88.5865 406.438 85.4453 402.909C81.1944 398.127 76.1606 398.525 73.0591 401.308C69.9477 404.082 68.6892 408.943 72.4745 413.197C76.0714 417.253 80.8575 416.149 84.068 413.277Z" fill="white"/>
<path d="M1.15936 358.137C-1.70434 351.874 0.980999 346.606 6.56968 344.021C13.0502 341.039 24.3762 340.055 38.5658 333.524C51.4575 327.589 52.4583 322.5 55.1337 321.267C56.4318 320.671 58.1064 321.963 58.8892 323.673C60.4945 327.172 60.0486 333.275 57.9875 338.852C53.5681 350.632 33.1754 363.962 36.6336 371.527C37.8623 374.21 40.7359 374.061 43.1735 372.948C55.1634 367.421 54.4896 357.789 62.7537 353.982C67.8569 351.626 73.3365 356.099 75.4571 360.731C78.4 367.153 76.2498 371.686 72.6825 373.326C69.363 374.857 64.8148 374.787 60.871 374.529C57.4029 374.25 51.9925 373.992 41.6178 378.773C38.9424 380.006 36.1381 381.596 33.4429 383.425C25.2878 388.753 26.3679 393.475 23.0384 395.006C21.017 395.94 18.7974 394.101 17.529 391.338C13.9222 383.455 16.6769 372.53 31.58 356.417C35.0581 352.649 40.2306 348.296 38.219 343.912C37.3272 341.963 34.9887 341.357 30.8566 343.266C21.9385 347.371 25.1788 359.17 14.8833 363.912C8.96766 366.636 3.60688 363.495 1.14945 358.127L1.15936 358.137Z" fill="white"/>
<path d="M28.0623 227.866C37.3657 227.866 44.9076 220.3 44.9076 210.967C44.9076 201.634 37.3657 194.069 28.0623 194.069C18.7589 194.069 11.217 201.634 11.217 210.967C11.217 220.3 18.7589 227.866 28.0623 227.866Z" fill="#FFD607"/>
<path d="M475.949 227.866C485.253 227.866 492.795 220.3 492.795 210.967C492.795 201.634 485.253 194.069 475.949 194.069C466.646 194.069 459.104 201.634 459.104 210.967C459.104 220.3 466.646 227.866 475.949 227.866Z" fill="#FFD607"/>
</g>
<defs>
<clipPath id="clip0_1_18">
<rect width="502" height="523" fill="white"/>
</clipPath>
</defs>
</svg>
